<svg width="126" height="35" viewBox="0 0 126 35" fill="none" xmlns="http://www.w3.org/2000/svg">
<path d="M23.9194 0H1.83421C0.82223 0 0 1.12863 0 2.51411V32.3565C0 33.742 0.82223 34.8707 1.83421 34.8707H23.9194C24.9314 34.8707 25.7594 33.742 25.7594 32.3565V2.51411C25.7594 1.12863 24.9314 0 23.9194 0ZM7.78531 29.8891H3.9674V13.2477H7.79106V29.8891H7.78531ZM5.87636 10.9749C4.65164 10.9749 3.66266 9.62835 3.66266 7.97822C3.66266 6.32809 4.65164 4.98152 5.87636 4.98152C7.09533 4.98152 8.09005 6.32809 8.09005 7.97822C8.09005 9.63613 7.10108 10.9749 5.87636 10.9749ZM22.0967 29.8891H18.2788V21.7942C18.2788 19.8638 18.2501 17.3808 16.2951 17.3808C14.3056 17.3808 14.0009 19.4824 14.0009 21.6541V29.8891H10.183V13.2477H13.8457V15.5206H13.8974C14.4091 14.2129 15.6569 12.8352 17.5141 12.8352C21.378 12.8352 22.0967 16.2833 22.0967 20.7667V29.8891Z" fill="#694BDB"/>
<path d="M61.17 8.49777C57.5131 8.49777 54.5634 12.4908 54.5634 17.4412C54.5634 22.3915 57.5131 26.3845 61.17 26.3845C64.8269 26.3845 67.7766 22.3915 67.7766 17.4412C67.7766 12.4908 64.8269 8.49777 61.17 8.49777ZM61.17 23.2555C58.8068 23.2555 56.8749 20.648 56.8749 17.4412C56.8749 14.2343 58.8011 11.6268 61.17 11.6268C63.539 11.6268 65.4652 14.2343 65.4652 17.4412C65.4652 20.648 63.5332 23.2555 61.17 23.2555ZM69.5878 8.13194C69.5878 9.2917 68.8978 10.218 68.0469 10.218C67.1901 10.218 66.5059 9.28392 66.5059 8.13194C66.5059 6.97997 67.1959 6.04593 68.0469 6.04593C68.8978 6.04593 69.5878 6.97997 69.5878 8.13194ZM73.9635 10.2491C73.8657 7.45477 73.3942 4.97958 71.882 2.94026C70.3755 0.900955 68.5471 0.262697 66.4829 0.122592C64.3554 -0.040864 57.9788 -0.040864 55.8514 0.122592C53.793 0.254914 51.9645 0.893171 50.4523 2.93248C48.9401 4.97179 48.4743 7.44698 48.3708 10.2413C48.2501 13.1212 48.2501 21.7533 48.3708 24.6332C48.4686 27.4276 48.9401 29.9027 50.4523 31.9421C51.9645 33.9814 53.7872 34.6196 55.8514 34.7597C57.9788 34.9232 64.3554 34.9232 66.4829 34.7597C68.5471 34.6274 70.3755 33.9892 71.882 31.9421C73.3885 29.9027 73.86 27.4276 73.9635 24.6332C74.0842 21.7533 74.0842 13.129 73.9635 10.2491ZM71.215 27.7233C70.7665 29.2489 69.8983 30.4243 68.7656 31.0392C67.0694 31.9498 63.0445 31.7397 61.17 31.7397C59.2956 31.7397 55.2649 31.9421 53.5745 31.0392C52.4475 30.432 51.5793 29.2567 51.125 27.7233C50.4523 25.4272 50.6075 19.9786 50.6075 17.4412C50.6075 14.9037 50.458 9.44738 51.125 7.15899C51.5735 5.6334 52.4417 4.45807 53.5745 3.84317C55.2707 2.93248 59.2956 3.14264 61.17 3.14264C63.0445 3.14264 67.0751 2.94026 68.7656 3.84317C69.8926 4.45029 70.7608 5.62562 71.215 7.15899C71.8878 9.45516 71.7325 14.9037 71.7325 17.4412C71.7325 19.9786 71.8878 25.4349 71.215 27.7233Z" fill="#694BDB"/>
<path d="M122.974 8.06648C122.993 8.42048 122.993 8.77456 122.993 9.12856C122.993 19.926 116.922 32.3672 105.826 32.3672C102.408 32.3672 99.2322 31.0269 96.561 28.7006C97.0467 28.7765 97.5137 28.8018 98.018 28.8018C100.839 28.8018 103.435 27.5122 105.509 25.3122C102.856 25.2363 100.633 22.8846 99.8673 19.6479C100.241 19.7237 100.615 19.7743 101.007 19.7743C101.549 19.7743 102.09 19.6731 102.595 19.4962C99.83 18.7375 97.7565 15.4503 97.7565 11.4802V11.3791C98.5597 11.986 99.4938 12.3653 100.484 12.4158C98.8586 10.9491 97.7939 8.44578 97.7939 5.61363C97.7939 4.09645 98.0927 2.70567 98.6157 1.49189C101.586 6.44811 106.05 9.68478 111.056 10.0389C110.963 9.43196 110.907 8.79986 110.907 8.16767C110.907 3.66656 113.597 0 116.941 0C118.678 0 120.247 0.986186 121.349 2.57926C122.713 2.22526 124.02 1.54248 125.178 0.606889C124.73 2.50345 123.777 4.09652 122.526 5.10793C123.74 4.93101 124.917 4.47574 126 3.84363C125.178 5.46193 124.151 6.90322 122.974 8.06648Z" fill="#694BDB"/>
</svg>
