<svg width="20" height="17" viewBox="0 0 20 17" fill="none" xmlns="http://www.w3.org/2000/svg">
<path d="M17 0.953125H3C2.20435 0.953125 1.44129 1.2692 0.87868 1.8318C0.316071 2.39441 0 3.15748 0 3.95312V13.9531C0 14.7488 0.316071 15.5118 0.87868 16.0744C1.44129 16.6371 2.20435 16.9531 3 16.9531H17C17.7956 16.9531 18.5587 16.6371 19.1213 16.0744C19.6839 15.5118 20 14.7488 20 13.9531V3.95312C20 3.15748 19.6839 2.39441 19.1213 1.8318C18.5587 1.2692 17.7956 0.953125 17 0.953125ZM16.59 2.95312L10.71 8.83313C10.617 8.92685 10.5064 9.00125 10.3846 9.05202C10.2627 9.10279 10.132 9.12892 10 9.12892C9.86799 9.12892 9.73728 9.10279 9.61542 9.05202C9.49356 9.00125 9.38296 8.92685 9.29 8.83313L3.41 2.95312H16.59ZM18 13.9531C18 14.2183 17.8946 14.4727 17.7071 14.6602C17.5196 14.8478 17.2652 14.9531 17 14.9531H3C2.73478 14.9531 2.48043 14.8478 2.29289 14.6602C2.10536 14.4727 2 14.2183 2 13.9531V4.36312L7.88 10.2431C8.4425 10.8049 9.205 11.1205 10 11.1205C10.795 11.1205 11.5575 10.8049 12.12 10.2431L18 4.36312V13.9531Z" fill="#B1E457"/>
</svg>
