<svg width="26" height="26" viewBox="0 0 26 26" fill="none" xmlns="http://www.w3.org/2000/svg">
<path d="M25.167 8.87866L23.2334 6.94507C22.7744 6.48608 22.0322 6.48608 21.5781 6.94507L9.88379 18.6394L4.44434 13.1951C3.98535 12.7361 3.24316 12.7361 2.78906 13.1951L0.850586 15.1335C0.391602 15.5925 0.391602 16.3347 0.850586 16.7937L9.05371 25.0017C9.5127 25.4607 10.2549 25.4607 10.709 25.0017L25.1621 10.5388C25.6211 10.075 25.6211 9.33276 25.167 8.87866ZM9.33203 14.0544C9.63477 14.3621 10.1328 14.3621 10.4355 14.0544L20.5918 3.88843C20.8945 3.58081 20.8945 3.08765 20.5918 2.78491L18.3848 0.572998C18.082 0.265381 17.584 0.265381 17.2812 0.572998L9.88379 7.97046L7.17871 5.2605C6.87598 4.95288 6.37793 4.95288 6.0752 5.2605L3.86328 7.47241C3.56055 7.78003 3.56055 8.27319 3.86328 8.57593L9.33203 14.0544Z" fill="black"/>
</svg>
