<svg width="10" height="25" viewBox="0 0 10 25" fill="none" xmlns="http://www.w3.org/2000/svg">
<path d="M1.48291 20.7143H2.45947V13.6607H1.48291C0.943555 13.6607 0.506348 13.2235 0.506348 12.6841V10.3516C0.506348 9.81221 0.943555 9.375 1.48291 9.375H6.95166C7.49102 9.375 7.92822 9.81221 7.92822 10.3516V20.7143H8.90479C9.44414 20.7143 9.88135 21.1515 9.88135 21.6909V24.0234C9.88135 24.5628 9.44414 25 8.90479 25H1.48291C0.943555 25 0.506348 24.5628 0.506348 24.0234V21.6909C0.506348 21.1515 0.943555 20.7143 1.48291 20.7143ZM5.19385 0C3.2522 0 1.67822 1.57397 1.67822 3.51562C1.67822 5.45728 3.2522 7.03125 5.19385 7.03125C7.1355 7.03125 8.70947 5.45728 8.70947 3.51562C8.70947 1.57397 7.13545 0 5.19385 0Z" fill="black"/>
</svg>
