<svg width="25" height="18" viewBox="0 0 25 18" fill="none" xmlns="http://www.w3.org/2000/svg">
<path d="M23.9583 0.666626H3.81944C3.24414 0.666626 2.77778 1.13299 2.77778 1.70829V2.05551H1.04167C0.466363 2.05551 0 2.52188 0 3.09718V14.9027C0 16.2451 1.08819 17.3333 2.43056 17.3333H22.9167C24.0673 17.3333 25 16.4006 25 15.25V1.70829C25 1.13299 24.5336 0.666626 23.9583 0.666626ZM2.43056 15.25C2.33847 15.25 2.25015 15.2134 2.18503 15.1483C2.11992 15.0831 2.08333 14.9948 2.08333 14.9027V4.13885H2.77778V14.9027C2.77778 14.9948 2.7412 15.0831 2.67608 15.1483C2.61096 15.2134 2.52264 15.25 2.43056 15.25ZM12.6736 14.5555H6.07639C5.78876 14.5555 5.55556 14.3223 5.55556 14.0347V13.6875C5.55556 13.3998 5.78876 13.1666 6.07639 13.1666H12.6736C12.9612 13.1666 13.1944 13.3998 13.1944 13.6875V14.0347C13.1944 14.3223 12.9612 14.5555 12.6736 14.5555ZM21.7014 14.5555H15.1042C14.8165 14.5555 14.5833 14.3223 14.5833 14.0347V13.6875C14.5833 13.3998 14.8165 13.1666 15.1042 13.1666H21.7014C21.989 13.1666 22.2222 13.3998 22.2222 13.6875V14.0347C22.2222 14.3223 21.989 14.5555 21.7014 14.5555ZM12.6736 10.3888H6.07639C5.78876 10.3888 5.55556 10.1556 5.55556 9.86801V9.52079C5.55556 9.23316 5.78876 8.99996 6.07639 8.99996H12.6736C12.9612 8.99996 13.1944 9.23316 13.1944 9.52079V9.86801C13.1944 10.1556 12.9612 10.3888 12.6736 10.3888ZM21.7014 10.3888H15.1042C14.8165 10.3888 14.5833 10.1556 14.5833 9.86801V9.52079C14.5833 9.23316 14.8165 8.99996 15.1042 8.99996H21.7014C21.989 8.99996 22.2222 9.23316 22.2222 9.52079V9.86801C22.2222 10.1556 21.989 10.3888 21.7014 10.3888ZM21.7014 6.22218H6.07639C5.78876 6.22218 5.55556 5.98898 5.55556 5.70135V3.96524C5.55556 3.67761 5.78876 3.4444 6.07639 3.4444H21.7014C21.989 3.4444 22.2222 3.67761 22.2222 3.96524V5.70135C22.2222 5.98898 21.989 6.22218 21.7014 6.22218Z" fill="black"/>
</svg>
