<svg width="20" height="26" viewBox="0 0 20 26" fill="none" xmlns="http://www.w3.org/2000/svg">
<path d="M16.9126 3.81958H13.0063C13.0063 2.09595 11.605 0.69458 9.88135 0.69458C8.15771 0.69458 6.75635 2.09595 6.75635 3.81958H2.8501C1.55615 3.81958 0.506348 4.86938 0.506348 6.16333V23.3508C0.506348 24.6448 1.55615 25.6946 2.8501 25.6946H16.9126C18.2065 25.6946 19.2563 24.6448 19.2563 23.3508V6.16333C19.2563 4.86938 18.2065 3.81958 16.9126 3.81958ZM5.19385 21.3977C4.54443 21.3977 4.02197 20.8752 4.02197 20.2258C4.02197 19.5764 4.54443 19.054 5.19385 19.054C5.84326 19.054 6.36572 19.5764 6.36572 20.2258C6.36572 20.8752 5.84326 21.3977 5.19385 21.3977ZM5.19385 16.7102C4.54443 16.7102 4.02197 16.1877 4.02197 15.5383C4.02197 14.8889 4.54443 14.3665 5.19385 14.3665C5.84326 14.3665 6.36572 14.8889 6.36572 15.5383C6.36572 16.1877 5.84326 16.7102 5.19385 16.7102ZM5.19385 12.0227C4.54443 12.0227 4.02197 11.5002 4.02197 10.8508C4.02197 10.2014 4.54443 9.67896 5.19385 9.67896C5.84326 9.67896 6.36572 10.2014 6.36572 10.8508C6.36572 11.5002 5.84326 12.0227 5.19385 12.0227ZM9.88135 2.64771C10.5308 2.64771 11.0532 3.17017 11.0532 3.81958C11.0532 4.46899 10.5308 4.99146 9.88135 4.99146C9.23193 4.99146 8.70947 4.46899 8.70947 3.81958C8.70947 3.17017 9.23193 2.64771 9.88135 2.64771ZM16.1313 20.6165C16.1313 20.8313 15.9556 21.0071 15.7407 21.0071H8.70947C8.49463 21.0071 8.31885 20.8313 8.31885 20.6165V19.8352C8.31885 19.6204 8.49463 19.4446 8.70947 19.4446H15.7407C15.9556 19.4446 16.1313 19.6204 16.1313 19.8352V20.6165ZM16.1313 15.929C16.1313 16.1438 15.9556 16.3196 15.7407 16.3196H8.70947C8.49463 16.3196 8.31885 16.1438 8.31885 15.929V15.1477C8.31885 14.9329 8.49463 14.7571 8.70947 14.7571H15.7407C15.9556 14.7571 16.1313 14.9329 16.1313 15.1477V15.929ZM16.1313 11.2415C16.1313 11.4563 15.9556 11.6321 15.7407 11.6321H8.70947C8.49463 11.6321 8.31885 11.4563 8.31885 11.2415V10.4602C8.31885 10.2454 8.49463 10.0696 8.70947 10.0696H15.7407C15.9556 10.0696 16.1313 10.2454 16.1313 10.4602V11.2415Z" fill="black"/>
</svg>
