<svg width="26" height="23" viewBox="0 0 26 23" fill="none" xmlns="http://www.w3.org/2000/svg">
<path d="M7.32322 1.12474C7.26878 1.07012 7.2041 1.02678 7.13288 0.997205C7.06165 0.967631 6.98529 0.952408 6.90818 0.952408C6.83106 0.952408 6.7547 0.967631 6.68348 0.997205C6.61226 1.02678 6.54757 1.07012 6.49314 1.12474L3.38376 4.21605L2.27536 3.13598C2.22093 3.08135 2.15625 3.03801 2.08502 3.00844C2.0138 2.97886 1.93744 2.96364 1.86033 2.96364C1.78321 2.96364 1.70685 2.97886 1.63563 3.00844C1.56441 3.03801 1.49972 3.08135 1.44529 3.13598L0.678685 3.90355C0.62406 3.95799 0.580718 4.02267 0.551144 4.09389C0.521571 4.16512 0.506348 4.24148 0.506348 4.31859C0.506348 4.39571 0.521571 4.47207 0.551144 4.54329C0.580718 4.61451 0.62406 4.6792 0.678685 4.73363L3.00242 7.04808C3.1184 7.15834 3.27232 7.21982 3.43235 7.21982C3.59238 7.21982 3.74629 7.15834 3.86228 7.04808L4.62351 6.28539L8.1489 2.76049C8.25874 2.65056 8.32081 2.50175 8.32163 2.34635C8.32245 2.19095 8.26197 2.0415 8.15329 1.93041L7.32322 1.12474ZM7.32322 8.89769C7.26878 8.84307 7.2041 8.79973 7.13288 8.77015C7.06165 8.74058 6.98529 8.72536 6.90818 8.72536C6.83106 8.72536 6.7547 8.74058 6.68348 8.77015C6.61226 8.79973 6.54757 8.84307 6.49314 8.89769L3.38376 12.009L2.27536 10.9299C2.22093 10.8753 2.15625 10.832 2.08502 10.8024C2.0138 10.7728 1.93744 10.7576 1.86033 10.7576C1.78321 10.7576 1.70685 10.7728 1.63563 10.8024C1.56441 10.832 1.49972 10.8753 1.44529 10.9299L0.678685 11.696C0.62406 11.7505 0.580718 11.8152 0.551144 11.8864C0.521571 11.9576 0.506348 12.034 0.506348 12.1111C0.506348 12.1882 0.521571 12.2646 0.551144 12.3358C0.580718 12.407 0.62406 12.4717 0.678685 12.5261L2.99656 14.8454C3.11246 14.9557 3.26629 15.0171 3.42624 15.0171C3.58619 15.0171 3.74002 14.9557 3.85593 14.8454L4.62253 14.0793L8.14792 10.553C8.25734 10.4438 8.3192 10.2958 8.32003 10.1413C8.32085 9.98672 8.26057 9.83809 8.15232 9.72777L7.32322 8.89769ZM3.63132 17.3601C2.33786 17.3601 1.25876 18.4099 1.25876 19.7038C1.25876 20.9978 2.33884 22.0476 3.63132 22.0476C4.25292 22.0476 4.84906 21.8007 5.2886 21.3611C5.72814 20.9216 5.97507 20.3254 5.97507 19.7038C5.97507 19.0822 5.72814 18.4861 5.2886 18.0466C4.84906 17.607 4.25292 17.3601 3.63132 17.3601ZM24.7251 18.1413H10.6626C10.4554 18.1413 10.2567 18.2237 10.1101 18.3702C9.96363 18.5167 9.88132 18.7154 9.88132 18.9226V20.4851C9.88132 20.6923 9.96363 20.891 10.1101 21.0375C10.2567 21.184 10.4554 21.2663 10.6626 21.2663H24.7251C24.9323 21.2663 25.131 21.184 25.2775 21.0375C25.424 20.891 25.5063 20.6923 25.5063 20.4851V18.9226C25.5063 18.7154 25.424 18.5167 25.2775 18.3702C25.131 18.2237 24.9323 18.1413 24.7251 18.1413ZM24.7251 2.51635H10.6626C10.4554 2.51635 10.2567 2.59866 10.1101 2.74517C9.96363 2.89168 9.88132 3.0904 9.88132 3.2976V4.8601C9.88132 5.0673 9.96363 5.26601 10.1101 5.41252C10.2567 5.55904 10.4554 5.64135 10.6626 5.64135H24.7251C24.9323 5.64135 25.131 5.55904 25.2775 5.41252C25.424 5.26601 25.5063 5.0673 25.5063 4.8601V3.2976C25.5063 3.0904 25.424 2.89168 25.2775 2.74517C25.131 2.59866 24.9323 2.51635 24.7251 2.51635ZM24.7251 10.3288H10.6626C10.4554 10.3288 10.2567 10.4112 10.1101 10.5577C9.96363 10.7042 9.88132 10.9029 9.88132 11.1101V12.6726C9.88132 12.8798 9.96363 13.0785 10.1101 13.225C10.2567 13.3715 10.4554 13.4538 10.6626 13.4538H24.7251C24.9323 13.4538 25.131 13.3715 25.2775 13.225C25.424 13.0785 25.5063 12.8798 25.5063 12.6726V11.1101C25.5063 10.9029 25.424 10.7042 25.2775 10.5577C25.131 10.4112 24.9323 10.3288 24.7251 10.3288Z" fill="black"/>
</svg>
